<svg width="270" height="50" viewBox="0 0 270 50" fill="none" xmlns="http://www.w3.org/2000/svg">
<path d="M76.4659 35V14.6364H83.3466C84.9441 14.6364 86.25 14.9247 87.2642 15.5014C88.285 16.0715 89.0407 16.8438 89.5312 17.8182C90.0218 18.7926 90.267 19.8797 90.267 21.0795C90.267 22.2794 90.0218 23.3698 89.5312 24.3509C89.0473 25.3319 88.2983 26.1141 87.2841 26.6974C86.2699 27.2741 84.9706 27.5625 83.3864 27.5625H78.4545V25.375H83.3068C84.4006 25.375 85.2789 25.1861 85.9418 24.8082C86.6046 24.4304 87.0852 23.92 87.3835 23.277C87.6884 22.6274 87.8409 21.8949 87.8409 21.0795C87.8409 20.2642 87.6884 19.535 87.3835 18.892C87.0852 18.2491 86.6013 17.7453 85.9318 17.3807C85.2623 17.0095 84.3741 16.8239 83.267 16.8239H78.9318V35H76.4659ZM93.9212 35V19.7273H96.1882V22.0341H96.3473C96.6257 21.2784 97.1295 20.6652 97.8587 20.1946C98.5878 19.724 99.4098 19.4886 100.325 19.4886C100.497 19.4886 100.712 19.4919 100.971 19.4986C101.229 19.5052 101.425 19.5152 101.558 19.5284V21.9148C101.478 21.8949 101.296 21.8651 101.011 21.8253C100.732 21.7789 100.437 21.7557 100.126 21.7557C99.3833 21.7557 98.7204 21.9115 98.1371 22.223C97.5604 22.5279 97.103 22.9522 96.7649 23.4957C96.4335 24.0327 96.2678 24.6458 96.2678 25.3352V35H93.9212ZM110.079 35.3182C108.7 35.3182 107.49 34.9901 106.45 34.3338C105.415 33.6776 104.607 32.7595 104.023 31.5795C103.447 30.3996 103.158 29.0208 103.158 27.4432C103.158 25.8523 103.447 24.4635 104.023 23.277C104.607 22.0904 105.415 21.169 106.45 20.5128C107.49 19.8565 108.7 19.5284 110.079 19.5284C111.458 19.5284 112.664 19.8565 113.698 20.5128C114.739 21.169 115.548 22.0904 116.124 23.277C116.708 24.4635 116.999 25.8523 116.999 27.4432C116.999 29.0208 116.708 30.3996 116.124 31.5795C115.548 32.7595 114.739 33.6776 113.698 34.3338C112.664 34.9901 111.458 35.3182 110.079 35.3182ZM110.079 33.2102C111.126 33.2102 111.988 32.9418 112.664 32.4048C113.34 31.8679 113.841 31.1619 114.165 30.2869C114.49 29.4119 114.653 28.464 114.653 27.4432C114.653 26.4223 114.49 25.4711 114.165 24.5895C113.841 23.7079 113.34 22.9953 112.664 22.4517C111.988 21.9081 111.126 21.6364 110.079 21.6364C109.031 21.6364 108.17 21.9081 107.494 22.4517C106.817 22.9953 106.317 23.7079 105.992 24.5895C105.667 25.4711 105.505 26.4223 105.505 27.4432C105.505 28.464 105.667 29.4119 105.992 30.2869C106.317 31.1619 106.817 31.8679 107.494 32.4048C108.17 32.9418 109.031 33.2102 110.079 33.2102ZM132.523 19.7273L126.875 35H124.489L118.841 19.7273H121.387L125.603 31.8977H125.762L129.978 19.7273H132.523ZM135.62 35V19.7273H137.967V35H135.62ZM136.814 17.1818C136.356 17.1818 135.962 17.026 135.63 16.7145C135.306 16.4029 135.143 16.0284 135.143 15.5909C135.143 15.1534 135.306 14.7789 135.63 14.4673C135.962 14.1558 136.356 14 136.814 14C137.271 14 137.662 14.1558 137.987 14.4673C138.318 14.7789 138.484 15.1534 138.484 15.5909C138.484 16.0284 138.318 16.4029 137.987 16.7145C137.662 17.026 137.271 17.1818 136.814 17.1818ZM148.032 35.3182C146.759 35.3182 145.636 34.9967 144.661 34.3537C143.687 33.7041 142.924 32.7893 142.374 31.6094C141.824 30.4228 141.549 29.0208 141.549 27.4034C141.549 25.7992 141.824 24.4072 142.374 23.2273C142.924 22.0473 143.69 21.1359 144.671 20.4929C145.652 19.8499 146.786 19.5284 148.072 19.5284C149.066 19.5284 149.852 19.6941 150.428 20.0256C151.012 20.3504 151.456 20.7216 151.761 21.1392C152.072 21.5502 152.314 21.8883 152.487 22.1534H152.685V14.6364H155.032V35H152.765V32.6534H152.487C152.314 32.9318 152.069 33.2831 151.751 33.7074C151.433 34.125 150.978 34.4995 150.388 34.831C149.799 35.1558 149.013 35.3182 148.032 35.3182ZM148.35 33.2102C149.291 33.2102 150.087 32.965 150.737 32.4744C151.386 31.9773 151.88 31.2912 152.218 30.4162C152.556 29.5346 152.725 28.517 152.725 27.3636C152.725 26.2235 152.559 25.2259 152.228 24.3707C151.897 23.509 151.406 22.8395 150.756 22.3622C150.107 21.8783 149.305 21.6364 148.35 21.6364C147.356 21.6364 146.527 21.8916 145.864 22.402C145.208 22.9058 144.714 23.5919 144.383 24.4602C144.058 25.322 143.896 26.2898 143.896 27.3636C143.896 28.4508 144.061 29.4384 144.393 30.3267C144.731 31.2083 145.228 31.911 145.884 32.4347C146.547 32.9517 147.369 33.2102 148.35 33.2102ZM166.059 35.3182C164.587 35.3182 163.318 34.9934 162.251 34.3438C161.19 33.6875 160.371 32.7727 159.795 31.5994C159.225 30.4195 158.94 29.0473 158.94 27.483C158.94 25.9186 159.225 24.5398 159.795 23.3466C160.371 22.1468 161.174 21.2121 162.201 20.5426C163.235 19.8665 164.442 19.5284 165.82 19.5284C166.616 19.5284 167.401 19.661 168.177 19.9261C168.952 20.1913 169.658 20.6222 170.295 21.2188C170.931 21.8087 171.438 22.5909 171.816 23.5653C172.194 24.5398 172.383 25.7396 172.383 27.1648V28.1591H160.61V26.1307H169.996C169.996 25.2689 169.824 24.5 169.479 23.8239C169.141 23.1477 168.657 22.6141 168.028 22.223C167.405 21.8319 166.669 21.6364 165.82 21.6364C164.886 21.6364 164.077 21.8684 163.394 22.3324C162.718 22.7898 162.198 23.3864 161.833 24.1222C161.469 24.858 161.286 25.6468 161.286 26.4886V27.8409C161.286 28.9943 161.485 29.9721 161.883 30.7741C162.287 31.5696 162.847 32.1761 163.563 32.5938C164.279 33.0047 165.111 33.2102 166.059 33.2102C166.675 33.2102 167.232 33.1241 167.729 32.9517C168.233 32.7727 168.667 32.5076 169.032 32.1562C169.397 31.7983 169.678 31.3542 169.877 30.8239L172.144 31.4602C171.906 32.2292 171.504 32.9053 170.941 33.4886C170.378 34.0653 169.682 34.5161 168.853 34.8409C168.024 35.1591 167.093 35.3182 166.059 35.3182ZM175.952 35V19.7273H178.219V22.0341H178.379C178.657 21.2784 179.161 20.6652 179.89 20.1946C180.619 19.724 181.441 19.4886 182.356 19.4886C182.528 19.4886 182.744 19.4919 183.002 19.4986C183.261 19.5052 183.456 19.5152 183.589 19.5284V21.9148C183.509 21.8949 183.327 21.8651 183.042 21.8253C182.763 21.7789 182.469 21.7557 182.157 21.7557C181.415 21.7557 180.752 21.9115 180.168 22.223C179.592 22.5279 179.134 22.9522 178.796 23.4957C178.465 24.0327 178.299 24.6458 178.299 25.3352V35H175.952ZM210.711 14.6364V35H208.325L197.228 19.0114H197.029V35H194.564V14.6364H196.95L208.086 30.6648H208.285V14.6364H210.711ZM219.822 35.358C218.854 35.358 217.976 35.1757 217.187 34.8111C216.398 34.4399 215.772 33.9062 215.308 33.2102C214.844 32.5076 214.612 31.6591 214.612 30.6648C214.612 29.7898 214.784 29.0805 215.129 28.5369C215.473 27.9867 215.934 27.5559 216.511 27.2443C217.087 26.9328 217.724 26.7008 218.42 26.5483C219.122 26.3892 219.828 26.2633 220.538 26.1705C221.466 26.0511 222.218 25.9616 222.795 25.902C223.378 25.8357 223.802 25.7263 224.067 25.5739C224.339 25.4214 224.475 25.1562 224.475 24.7784V24.6989C224.475 23.7178 224.207 22.9555 223.67 22.4119C223.139 21.8684 222.334 21.5966 221.254 21.5966C220.133 21.5966 219.255 21.8419 218.619 22.3324C217.982 22.8229 217.535 23.3466 217.276 23.9034L215.049 23.108C215.447 22.1799 215.977 21.4574 216.64 20.9403C217.309 20.4167 218.039 20.0521 218.827 19.8466C219.623 19.6345 220.405 19.5284 221.174 19.5284C221.665 19.5284 222.228 19.5881 222.864 19.7074C223.507 19.8201 224.127 20.0554 224.724 20.4134C225.327 20.7713 225.827 21.3116 226.225 22.0341C226.623 22.7566 226.822 23.7244 226.822 24.9375V35H224.475V32.9318H224.356C224.197 33.2633 223.932 33.6179 223.56 33.9957C223.189 34.3736 222.695 34.6951 222.079 34.9602C221.462 35.2254 220.71 35.358 219.822 35.358ZM220.18 33.25C221.108 33.25 221.89 33.0677 222.526 32.7031C223.169 32.3385 223.653 31.8679 223.978 31.2912C224.309 30.7145 224.475 30.108 224.475 29.4716V27.3239C224.376 27.4432 224.157 27.5526 223.819 27.652C223.487 27.7448 223.103 27.8277 222.665 27.9006C222.235 27.9669 221.814 28.0265 221.403 28.0795C220.998 28.1259 220.67 28.1657 220.418 28.1989C219.808 28.2784 219.238 28.4077 218.708 28.5866C218.184 28.759 217.76 29.0208 217.435 29.3722C217.117 29.7169 216.958 30.1875 216.958 30.7841C216.958 31.5994 217.26 32.2159 217.863 32.6335C218.473 33.0445 219.245 33.25 220.18 33.25ZM231.105 35V19.7273H233.372V22.1136H233.571C233.889 21.2983 234.403 20.6652 235.112 20.2145C235.821 19.7571 236.673 19.5284 237.667 19.5284C238.675 19.5284 239.513 19.7571 240.183 20.2145C240.859 20.6652 241.386 21.2983 241.764 22.1136H241.923C242.314 21.3248 242.901 20.6984 243.683 20.2344C244.465 19.7637 245.403 19.5284 246.497 19.5284C247.862 19.5284 248.979 19.956 249.848 20.8111C250.716 21.6596 251.15 22.982 251.15 24.7784V35H248.804V24.7784C248.804 23.6515 248.495 22.8461 247.879 22.3622C247.262 21.8783 246.537 21.6364 245.701 21.6364C244.627 21.6364 243.796 21.9612 243.206 22.6108C242.616 23.2538 242.321 24.0691 242.321 25.0568V35H239.934V24.5398C239.934 23.6714 239.653 22.9721 239.089 22.4418C238.526 21.9048 237.8 21.6364 236.912 21.6364C236.302 21.6364 235.732 21.7988 235.201 22.1236C234.678 22.4484 234.253 22.8991 233.929 23.4759C233.61 24.0459 233.451 24.7055 233.451 25.4545V35H231.105ZM261.844 35.3182C260.373 35.3182 259.103 34.9934 258.036 34.3438C256.975 33.6875 256.157 32.7727 255.58 31.5994C255.01 30.4195 254.725 29.0473 254.725 27.483C254.725 25.9186 255.01 24.5398 255.58 23.3466C256.157 22.1468 256.959 21.2121 257.986 20.5426C259.02 19.8665 260.227 19.5284 261.605 19.5284C262.401 19.5284 263.186 19.661 263.962 19.9261C264.738 20.1913 265.444 20.6222 266.08 21.2188C266.716 21.8087 267.223 22.5909 267.601 23.5653C267.979 24.5398 268.168 25.7396 268.168 27.1648V28.1591H256.395V26.1307H265.782C265.782 25.2689 265.609 24.5 265.265 23.8239C264.926 23.1477 264.443 22.6141 263.813 22.223C263.19 21.8319 262.454 21.6364 261.605 21.6364C260.671 21.6364 259.862 21.8684 259.179 22.3324C258.503 22.7898 257.983 23.3864 257.618 24.1222C257.254 24.858 257.071 25.6468 257.071 26.4886V27.8409C257.071 28.9943 257.27 29.9721 257.668 30.7741C258.072 31.5696 258.632 32.1761 259.348 32.5938C260.064 33.0047 260.896 33.2102 261.844 33.2102C262.461 33.2102 263.017 33.1241 263.515 32.9517C264.018 32.7727 264.453 32.5076 264.817 32.1562C265.182 31.7983 265.463 31.3542 265.662 30.8239L267.929 31.4602C267.691 32.2292 267.29 32.9053 266.726 33.4886C266.163 34.0653 265.467 34.5161 264.638 34.8409C263.81 35.1591 262.878 35.3182 261.844 35.3182Z" fill="black"/>
<rect width="50" height="50" rx="8" fill="#00A956"/>
<path d="M18.82 15.4H26.128C28.004 15.4 29.6 16.044 30.888 17.304C32.176 18.564 32.82 20.132 32.82 21.98C32.82 23.828 32.176 25.396 30.888 26.656C29.6 27.916 28.004 28.56 26.128 28.56H22.684V35H18.82V15.4ZM22.684 24.948H26.128C27.78 24.948 28.984 23.66 28.984 21.98C28.984 20.272 27.78 19.012 26.128 19.012H22.684V24.948Z" fill="white"/>
</svg>
